<svg version="1.1" id="Layer_1" xmlns="http://www.w3.org/2000/svg" xmlns:xlink="http://www.w3.org/1999/xlink" x="0px" y="0px"
	 width="100%" viewBox="0 0 200 200" enable-background="new 0 0 200 200" xml:space="preserve">
<path fill="#FEFEFE" opacity="1.000000" stroke="none" 
	d="
M1.268173,55.218723 
	C1.000000,38.024097 1.043159,21.047960 0.949370,4.072577 
	C0.936596,1.760537 1.233296,0.919463 3.919314,0.923534 
	C68.660591,1.021661 133.402100,1.025766 198.143326,0.913889 
	C200.987183,0.908974 201.044540,1.972646 201.036224,4.135113 
	C200.970871,21.110764 201.000000,38.086781 201.000000,55.531342 
	C198.036942,57.246952 197.060928,54.848843 196.249146,53.033821 
	C194.243744,48.550007 190.819748,47.458824 186.217896,47.477039 
	C164.337128,47.563652 142.455185,47.648544 120.125092,47.441772 
	C118.501366,47.407528 117.325226,47.412529 115.744720,47.147606 
	C111.380020,45.888390 107.358223,46.350513 102.968491,46.663498 
	C101.811661,46.951859 101.023621,46.997150 99.839645,46.963509 
	C98.410782,46.814938 97.376640,46.799942 95.950256,47.130344 
	C88.756302,47.680382 81.961029,47.548588 74.771820,47.255150 
	C73.200729,47.109081 72.056229,46.329758 70.567993,47.259598 
	C68.477890,52.297947 69.787071,57.309032 69.368080,62.557976 
	C69.467461,64.230087 68.732750,66.100037 71.649857,65.763596 
	C80.338036,65.376526 88.656448,65.306328 97.381973,65.827660 
	C99.107529,66.204414 100.054855,67.306526 101.775093,67.605408 
	C102.935089,67.733452 103.694763,67.894936 104.815269,68.227997 
	C116.093185,73.485275 121.387894,82.484604 123.014511,94.474548 
	C123.569092,99.322083 123.398460,103.780800 123.189964,108.643036 
	C122.510628,111.096970 122.242661,113.229446 121.708336,115.300461 
	C119.325623,124.535721 114.859604,132.055328 104.854416,135.452469 
	C104.014236,135.789673 103.518402,135.933502 102.634636,136.119507 
	C100.656059,136.253326 99.294296,136.983917 97.548233,137.878708 
	C96.880112,138.094666 96.601501,138.161102 95.887077,138.278488 
	C85.892433,138.498062 76.332581,138.340118 66.299835,138.422333 
	C52.621887,138.350128 39.417114,138.496017 25.724735,138.305420 
	C24.585058,138.167328 23.968338,137.965958 23.008446,137.351990 
	C21.203445,134.946243 21.613752,132.548584 21.610611,130.250809 
	C21.575779,104.770683 21.625029,79.290405 21.535307,53.810520 
	C21.527830,51.687206 22.595358,49.009842 19.284727,47.577023 
	C15.701290,47.436733 12.538168,47.299240 9.026538,47.516888 
	C7.845412,47.749565 7.049284,48.033726 6.280823,48.933151 
	C6.037006,49.373489 5.944934,49.553719 5.719698,50.008766 
	C5.317821,50.841999 5.036806,51.394653 4.682763,52.267204 
	C4.240772,53.387287 3.930480,54.215244 3.149653,55.162582 
	C2.441629,55.533520 1.991415,55.545219 1.268173,55.218723 
z"/>
<path fill="#FEFEFE" opacity="1.000000" stroke="none" 
	d="
M200.544769,61.012634 
	C201.000000,106.282692 200.967072,151.565460 201.072479,196.847916 
	C201.079666,199.936432 200.901810,201.123398 197.160568,201.114120 
	C133.065979,200.955261 68.970779,200.957520 4.876151,201.110458 
	C1.210365,201.119202 0.880142,200.053848 0.917070,196.883865 
	C1.099348,181.236816 1.000000,165.586487 1.000000,149.468658 
	C1.324749,148.659546 1.725697,148.481934 2.526005,148.524948 
	C3.041672,148.751785 3.222657,148.896210 3.590247,149.335236 
	C4.076124,150.266922 4.303661,150.933548 4.734139,151.909668 
	C4.990216,152.463638 5.092470,152.687881 5.344454,153.261139 
	C5.634200,153.831131 5.774216,154.052109 6.144880,154.600403 
	C8.307178,157.635376 11.221775,157.376419 14.034275,157.507782 
	C28.467882,158.181961 42.842922,156.407990 57.262802,156.493530 
	C60.756626,156.514252 64.224007,156.653595 68.088058,157.502930 
	C81.453613,157.544113 94.364563,157.406708 107.739052,157.542145 
	C108.811821,157.534607 109.420189,157.557892 110.473801,157.573318 
	C113.823349,157.553894 116.727058,157.550079 120.048622,157.570251 
	C122.606316,157.603409 124.751205,157.793793 127.245590,157.276443 
	C129.071014,156.809692 130.548431,156.741364 132.378845,156.902344 
	C133.926712,157.114182 135.139511,157.903854 136.612305,156.728607 
	C137.091507,156.445068 137.295792,156.345795 137.832031,156.142365 
	C139.350983,155.783081 140.553772,155.787964 142.132355,155.844696 
	C145.484650,156.595596 148.466324,157.086670 151.852417,155.922577 
	C161.363297,155.369217 170.498611,155.694733 179.631393,155.661896 
	C180.964630,155.657089 182.264526,155.912537 183.558380,156.260742 
	C192.429810,158.648132 200.546906,150.499008 198.330276,141.352676 
	C197.281418,137.024780 193.563675,138.880051 190.439209,138.408188 
	C176.594513,138.332321 163.180191,138.546936 149.311386,138.232712 
	C148.269089,138.013992 147.727478,137.765839 146.946777,137.092377 
	C145.820786,135.063965 146.460007,133.484406 147.253845,132.035172 
	C150.412277,126.269165 151.823486,119.989235 152.996979,113.188919 
	C153.270798,112.541878 153.411209,112.294548 153.867188,111.754639 
	C155.492416,110.724396 156.931717,110.634743 158.816284,110.606781 
	C162.932556,110.444084 166.620590,110.605270 170.711578,110.521042 
	C171.639633,110.539566 172.161697,110.521347 173.029068,110.321579 
	C175.673172,105.461960 174.396179,100.486984 174.289841,95.618301 
	C174.248383,93.719681 172.414047,93.533562 170.889771,93.477882 
	C167.411484,93.350815 163.930099,93.441376 160.049500,93.398392 
	C158.556412,93.349770 157.464828,93.305679 155.993073,92.941818 
	C155.348343,92.689323 155.103424,92.557915 154.559189,92.137749 
	C151.739578,84.497147 149.809723,76.938232 146.465652,69.873085 
	C145.953796,68.791702 146.185577,67.585777 147.397705,66.381950 
	C150.985825,65.049706 154.323517,65.501091 157.612213,65.483498 
	C168.200241,65.426834 178.792496,65.298653 189.375275,65.540421 
	C193.806122,65.641647 197.511505,64.901268 200.544769,61.012634 
z"/>
<path fill="#9D9F9E" opacity="1.000000" stroke="none" 
	d="
M201.000000,60.583336 
	C199.300079,67.570229 194.356735,67.148651 189.037689,67.068962 
	C175.462631,66.865578 161.880478,67.135979 147.858856,67.212654 
	C147.192078,67.323357 146.967606,67.438240 146.374878,67.469543 
	C141.551224,62.211033 136.450012,57.797924 130.777145,53.978962 
	C128.600281,52.513496 126.189049,52.170822 123.823921,51.475338 
	C121.423592,50.769512 118.891426,50.195099 118.760849,46.690536 
	C133.417496,46.257328 147.900452,46.129749 162.383667,46.051979 
	C170.880432,46.006355 179.407959,46.472076 187.863464,45.878643 
	C193.071716,45.513107 195.444244,47.799137 197.253448,51.953465 
	C197.950348,53.553692 198.143234,55.626019 200.640335,56.129379 
	C201.000000,57.388889 201.000000,58.777779 201.000000,60.583336 
z"/>
<path fill="#CBDFE3" opacity="1.000000" stroke="none" 
	d="
M1.424388,147.219391 
	C1.000000,117.645775 1.000000,88.291542 1.000000,58.468658 
	C2.250529,57.862503 2.645363,58.764645 3.145273,60.144958 
	C3.834654,88.400543 2.631207,116.208481 4.287629,144.457474 
	C4.157326,145.247025 4.077188,145.557785 3.767837,146.291504 
	C3.089575,147.222412 2.526548,147.464447 1.424388,147.219391 
z"/>
<path fill="#A8C9D1" opacity="1.000000" stroke="none" 
	d="
M2.583647,59.941826 
	C1.903249,59.477947 1.701878,58.911709 1.250253,58.172737 
	C1.000000,57.250000 1.000000,56.500000 1.000000,55.375000 
	C1.372456,54.946945 1.744912,54.893887 2.392658,54.767052 
	C4.594599,56.270981 4.426957,58.009335 2.583647,59.941826 
z"/>
<path fill="#A8C9D1" opacity="1.000000" stroke="none" 
	d="
M1.000000,147.333328 
	C1.388137,146.968185 1.776274,146.936386 2.455311,146.877274 
	C3.245105,147.356506 3.431122,147.959549 2.949160,149.012329 
	C2.242475,149.271805 1.890869,149.178085 1.269632,149.042175 
	C1.000000,148.555557 1.000000,148.111099 1.000000,147.333328 
z"/>
<path fill="#7EBFCF" opacity="1.000000" stroke="none" 
	d="
M2.605032,149.517883 
	C2.689845,148.808060 2.785610,148.250595 2.813793,147.271545 
	C2.746211,146.849960 2.833756,146.443634 2.871226,146.239212 
	C4.221095,142.495850 3.594903,138.807449 3.443631,135.234787 
	C2.428082,111.250008 3.252048,87.259300 3.072784,63.273270 
	C3.048208,59.985012 3.298878,56.636833 4.091117,52.914146 
	C4.436299,51.862175 4.549108,51.245602 4.730044,50.168991 
	C4.895474,49.726749 4.984681,49.348057 5.091466,49.185455 
	C5.635844,48.486824 6.206956,48.082111 6.752191,47.223724 
	C10.137951,44.999317 13.690976,46.527397 17.537676,46.132477 
	C21.245176,47.482441 22.058260,49.969376 22.045063,53.324146 
	C21.941187,79.731529 22.031725,106.139473 21.966936,132.547211 
	C21.963766,133.839233 21.448097,135.212921 22.967981,136.590530 
	C23.732182,136.917053 24.118849,136.967148 24.776814,137.129364 
	C26.386810,138.144882 27.916111,137.998978 29.404289,137.994125 
	C41.233154,137.955536 53.062492,138.118103 65.337570,137.823303 
	C66.711235,137.474686 67.588715,137.492294 68.590218,138.577240 
	C70.065941,144.306351 69.340950,149.712997 69.302643,155.547821 
	C69.168358,156.604355 68.978096,157.176559 68.383934,158.053711 
	C48.834175,157.458633 29.610310,159.303314 10.363407,158.860886 
	C7.062797,158.785004 5.592424,157.126678 4.239488,154.310638 
	C4.226596,153.787628 4.312552,153.602539 4.181764,153.201279 
	C3.965018,152.985123 3.773363,152.600418 3.736857,152.388641 
	C3.873924,151.491302 3.749714,150.867432 3.033904,150.125397 
	C2.754561,149.942535 2.615986,149.670242 2.605032,149.517883 
z"/>
<path fill="#69A6B5" opacity="1.000000" stroke="none" 
	d="
M118.542717,46.252434 
	C119.712059,50.287289 123.285759,49.956333 125.944717,50.788631 
	C134.587433,53.493946 140.804474,59.213623 145.984070,66.712181 
	C144.850403,70.257492 142.008224,69.415741 139.749191,69.459572 
	C128.479340,69.678299 117.209129,69.509842 105.488472,68.998642 
	C104.282784,68.903847 103.533401,68.863228 102.424911,68.710602 
	C101.184975,68.018372 100.079323,68.004951 98.880058,67.398483 
	C89.357925,67.293106 80.141701,67.245560 70.457687,67.155563 
	C68.983566,66.518951 69.118484,65.369820 68.576492,64.216660 
	C68.512558,58.044617 66.945137,52.061722 69.680939,46.216228 
	C70.847198,46.039116 71.628532,46.015331 72.699959,45.946854 
	C80.680893,45.883968 88.370193,45.847191 96.526367,45.850494 
	C97.438065,45.938812 97.884193,45.962589 98.666260,45.940159 
	C99.751968,45.896366 100.503036,45.874290 101.628372,45.888969 
	C106.035980,46.132072 110.075294,45.878548 114.507217,46.147697 
	C115.987526,46.188251 117.069267,46.164566 118.542717,46.252434 
z"/>
<path fill="#65A6B5" opacity="1.000000" stroke="none" 
	d="
M68.459946,157.111816 
	C68.029488,151.293228 68.014549,145.615570 68.003906,139.470184 
	C69.878738,137.459045 72.113358,138.121567 74.205658,138.017975 
	C81.596169,137.652008 89.024841,138.704025 96.722046,137.103287 
	C97.051498,136.778351 97.299980,136.586121 97.454811,136.612610 
	C98.942642,136.581116 100.147362,135.919281 101.785568,135.715149 
	C102.536003,135.496017 102.972183,135.380463 103.746353,135.307709 
	C105.634483,135.235901 107.146820,135.728180 109.102455,135.607452 
	C117.039536,134.796631 124.577789,134.242462 132.159912,134.526840 
	C134.973694,134.632370 137.729279,135.006912 140.817200,135.944824 
	C143.197510,137.371460 142.687668,138.901459 141.423370,140.228958 
	C137.462128,144.388184 133.707855,148.863861 127.644905,150.129089 
	C123.437904,151.007004 120.160858,153.472992 116.814041,156.610596 
	C113.935341,157.731232 111.359322,157.244995 108.368927,157.101868 
	C103.296768,155.769760 98.748337,157.491135 94.138664,157.493378 
	C85.715851,157.497498 77.296692,157.297943 68.459946,157.111816 
z"/>
<path fill="#84BFCD" opacity="1.000000" stroke="none" 
	d="
M105.182800,69.253868 
	C107.763397,66.850731 110.692841,67.696754 113.825256,67.787254 
	C124.339806,68.091064 134.883408,68.455284 145.708801,67.352585 
	C146.248291,67.077057 146.483002,67.083817 147.067139,67.149529 
	C146.437363,70.017754 148.675171,71.901657 149.617691,74.047920 
	C152.033112,79.548317 153.430450,85.317184 155.009430,91.453278 
	C153.559570,93.352585 151.683197,92.571465 149.932297,92.580681 
	C142.203506,92.621361 134.459427,91.949203 126.353790,93.189163 
	C124.894844,93.451279 123.894157,93.828087 122.485130,94.039230 
	C120.257599,86.636520 118.274033,79.517250 112.210777,74.141815 
	C110.048027,72.224419 107.241539,71.630630 105.182800,69.253868 
z"/>
<path fill="#8CBBC3" opacity="1.000000" stroke="none" 
	d="
M23.265741,136.414444 
	C21.614584,136.964523 19.587597,137.141205 20.361319,134.461258 
	C21.595072,130.187943 20.941124,125.867874 20.958790,121.582726 
	C21.051317,99.138214 20.957226,76.692924 21.059320,54.248497 
	C21.072929,51.256855 20.697821,48.708759 18.065939,46.523666 
	C22.120817,45.081036 23.101114,46.961048 23.092142,50.841755 
	C23.026548,79.214928 23.133482,107.588486 23.265741,136.414444 
z"/>
<path fill="#81B6C3" opacity="1.000000" stroke="none" 
	d="
M4.696105,51.727814 
	C4.137324,54.718925 3.959731,57.501282 3.973387,60.352230 
	C4.108962,88.657913 4.184936,116.963898 4.246887,145.269852 
	C4.247352,145.482254 3.820056,145.695618 3.250595,145.971664 
	C1.574130,117.691307 2.260283,89.328232 2.094321,60.508850 
	C3.451274,58.716309 2.883713,57.061245 2.774409,55.097984 
	C2.849715,53.885544 3.031483,53.077816 3.457573,52.067295 
	C3.933507,51.729408 4.165120,51.594322 4.696105,51.727814 
z"/>
<path fill="#84BFCD" opacity="1.000000" stroke="none" 
	d="
M108.247932,136.637726 
	C106.662071,137.023346 105.393417,136.968109 104.250954,135.614685 
	C104.392197,134.980316 104.627556,134.411438 105.018425,134.268875 
	C116.090553,130.230179 119.620209,120.953918 121.820877,110.298706 
	C122.826508,109.700775 123.285698,110.167557 123.972191,110.854691 
	C124.784157,111.756027 125.554970,112.220612 126.283264,113.200279 
	C124.067268,123.985603 118.582245,131.981522 108.247932,136.637726 
z"/>
<path fill="#7CB0B7" opacity="1.000000" stroke="none" 
	d="
M65.641830,137.435394 
	C65.406837,138.914642 64.260025,138.990311 63.076450,138.990021 
	C51.169033,138.987045 39.261612,138.987000 27.354195,138.983795 
	C26.499640,138.983566 25.716019,138.817062 25.152622,137.611176 
	C38.422729,137.201294 51.797352,137.161102 65.641830,137.435394 
z"/>
<path fill="#629DA2" opacity="1.000000" stroke="none" 
	d="
M66.392334,137.840424 
	C66.111694,137.749878 66.105919,137.569153 66.094742,137.480621 
	C76.069962,136.267212 86.105072,137.336929 96.577194,136.752106 
	C96.719543,139.534607 94.587807,138.975052 92.855782,138.982544 
	C84.885193,139.016983 76.914368,138.998367 68.475922,139.000610 
	C67.563133,138.645294 67.118057,138.288132 66.392334,137.840424 
z"/>
<path fill="#619EA7" opacity="1.000000" stroke="none" 
	d="
M123.502037,111.949913 
	C122.858360,111.459099 122.704048,110.916733 122.318802,110.207199 
	C122.080200,104.992874 122.072517,99.945709 122.082169,94.427895 
	C122.575417,93.368156 123.051323,92.779068 123.786743,92.061386 
	C126.424652,98.594574 126.510818,105.250046 123.502037,111.949913 
z"/>
<path fill="#84BFCD" opacity="1.000000" stroke="none" 
	d="
M114.632385,45.918140 
	C110.827408,47.727695 106.690834,47.042439 102.280853,46.232025 
	C106.091019,44.578552 110.228958,45.263950 114.632385,45.918140 
z"/>
<path fill="#84BFCD" opacity="1.000000" stroke="none" 
	d="
M68.325157,64.273186 
	C69.828537,64.239059 69.995811,65.282784 69.985146,66.776260 
	C67.088715,67.908051 68.479332,65.664673 68.325157,64.273186 
z"/>
<path fill="#84BFCD" opacity="1.000000" stroke="none" 
	d="
M101.778427,135.454956 
	C101.295128,137.359604 99.771294,136.943161 97.983124,136.747192 
	C98.681587,135.588104 99.938545,135.067963 101.778427,135.454956 
z"/>
<path fill="#84BFCD" opacity="1.000000" stroke="none" 
	d="
M98.758209,67.626236 
	C99.754532,67.037422 100.943230,66.689667 101.948685,68.273956 
	C100.890480,68.979721 99.820511,68.881752 98.758209,67.626236 
z"/>
<path fill="#8CBBC3" opacity="1.000000" stroke="none" 
	d="
M6.562409,46.975243 
	C8.579340,48.606361 7.213590,48.808575 5.514518,49.012665 
	C5.127877,48.134155 5.430636,47.448029 6.562409,46.975243 
z"/>
<path fill="#84BFCD" opacity="1.000000" stroke="none" 
	d="
M72.775848,45.730736 
	C72.391281,47.035164 71.509300,47.128448 70.267731,46.392693 
	C70.690239,45.112930 71.596214,45.211823 72.775848,45.730736 
z"/>
<path fill="#84BFCD" opacity="1.000000" stroke="none" 
	d="
M98.846725,45.729851 
	C98.584190,46.685890 98.045425,46.991634 97.128403,46.134140 
	C97.452934,45.254837 98.028976,45.185162 98.846725,45.729851 
z"/>
<path fill="#8CBBC3" opacity="1.000000" stroke="none" 
	d="
M4.994801,51.618462 
	C4.779573,51.982204 4.563669,51.968014 4.024829,51.909161 
	C3.930521,51.280602 4.159148,50.696701 4.641625,49.919777 
	C4.928358,50.231342 4.961241,50.735935 4.994801,51.618462 
z"/>
<path fill="#969796" opacity="1.000000" stroke="none" 
	d="
M190.551239,137.478394 
	C193.669586,137.141571 197.218002,135.556396 198.798904,138.181305 
	C200.871368,141.622437 200.161331,146.000748 198.545441,149.560974 
	C193.979477,159.621033 193.820160,158.946609 182.482468,157.827866 
	C172.784927,156.870972 162.924225,157.567642 152.688904,157.445038 
	C148.980469,156.503433 145.614304,157.221344 142.043243,157.013504 
	C140.552063,157.388367 139.348312,157.447693 137.798401,157.392426 
	C135.608307,157.400726 133.806763,157.003815 131.624207,156.676880 
	C129.479263,154.555771 130.758621,152.883896 132.245468,151.978485 
	C138.375320,148.245712 142.611633,142.320190 148.876068,138.197571 
	C162.906021,137.688736 176.534470,138.460068 190.551239,137.478394 
z"/>
<path fill="#7CBECE" opacity="1.000000" stroke="none" 
	d="
M108.434937,136.921707 
	C108.185013,136.109009 108.199333,134.768997 108.613403,134.631332 
	C118.766563,131.255737 121.992111,122.289520 125.843170,113.367470 
	C126.441994,112.537109 126.968964,112.014328 127.615555,111.962166 
	C136.150314,111.273628 144.689850,110.577362 153.569229,112.711479 
	C153.766037,121.096443 150.863510,128.338440 147.019775,135.671722 
	C146.492142,136.608704 145.985458,137.108658 145.001160,137.582870 
	C143.934784,137.863022 143.230667,137.808990 142.286926,137.230194 
	C130.972595,135.252960 119.929024,136.094711 108.434937,136.921707 
z"/>
<path fill="#67A7B7" opacity="1.000000" stroke="none" 
	d="
M154.064407,112.914352 
	C144.947556,113.016205 135.939407,113.009468 126.462051,113.020287 
	C125.130760,112.871361 124.268692,112.704872 123.209648,112.269928 
	C125.176483,105.725136 123.426697,99.243324 124.031349,92.408569 
	C134.109802,90.602730 144.175934,90.348679 154.669983,91.845200 
	C155.093719,91.829437 155.075043,91.858284 155.075104,91.873093 
	C156.236664,98.497124 155.971985,105.072433 154.427704,112.064789 
	C154.249222,112.507996 154.173126,112.805763 154.064407,112.914352 
z"/>
<path fill="#9A9C9B" opacity="1.000000" stroke="none" 
	d="
M158.698853,92.424309 
	C159.661270,91.982590 160.330215,91.832657 160.984238,91.881721 
	C165.898193,92.250359 173.136566,89.635277 175.208145,92.981644 
	C178.183640,97.788193 176.237411,104.870918 175.886795,110.982544 
	C175.868973,111.293236 175.199646,111.566544 174.411469,111.820580 
	C173.537689,111.428162 173.054947,111.210541 172.240158,111.595116 
	C167.979614,111.811195 163.949951,111.873627 159.465240,111.846863 
	C156.314804,105.521622 157.104691,99.173073 158.698853,92.424309 
z"/>
<path fill="#6FA3AC" opacity="1.000000" stroke="none" 
	d="
M68.047791,157.209534 
	C69.810020,155.723419 71.474228,155.439133 73.873787,155.590866 
	C82.751305,156.152252 91.694183,156.738541 100.576515,155.290680 
	C102.865959,154.917496 105.163002,154.684128 107.719231,155.704132 
	C108.129837,156.101227 108.258453,156.209167 108.533768,156.523773 
	C108.788574,157.054718 108.839897,157.387772 108.752884,157.970612 
	C95.448669,159.347855 82.206772,158.804749 68.524506,158.537216 
	C68.086937,158.076599 68.077606,157.762131 68.047791,157.209534 
z"/>
<path fill="#809A9F" opacity="1.000000" stroke="none" 
	d="
M108.295166,157.208160 
	C108.035049,156.844757 108.026718,156.674561 108.009804,156.248825 
	C110.692513,155.985077 113.383797,155.976868 116.523140,155.960617 
	C120.529747,153.080368 125.333305,153.400345 129.198837,150.780441 
	C134.883377,146.927689 139.609833,142.164780 144.750397,137.245697 
	C145.445465,136.675766 145.897034,136.370514 146.633682,136.042908 
	C147.147751,136.286850 147.376755,136.553146 147.822845,136.972809 
	C148.369934,137.499969 148.505615,137.934448 148.235077,138.719055 
	C144.451797,143.860565 140.031952,147.851364 135.178406,151.348907 
	C133.593857,152.490768 131.627930,153.121307 131.034607,155.642700 
	C129.787720,157.473099 127.876465,156.705307 126.095268,157.512833 
	C124.441605,158.010101 123.076904,157.960281 121.383011,157.991882 
	C118.026161,159.151184 114.914169,158.608734 111.396225,158.313034 
	C110.117386,158.032074 109.323952,157.743881 108.295166,157.208160 
z"/>
<path fill="#95A2A5" opacity="1.000000" stroke="none" 
	d="
M158.609970,91.976120 
	C159.001205,98.315590 159.003174,104.590805 159.007660,111.311844 
	C157.683624,111.952202 156.357056,112.146744 154.639862,112.424637 
	C154.072769,105.906586 153.321762,99.283463 155.035645,92.319962 
	C156.123688,91.895897 157.172195,91.903885 158.609970,91.976120 
z"/>
<path fill="#8A8B89" opacity="1.000000" stroke="none" 
	d="
M148.489471,139.005493 
	C148.023697,138.589920 148.024170,138.171295 148.032288,137.439453 
	C162.040771,137.108414 176.041595,137.090622 190.498688,137.170303 
	C190.234833,139.954987 188.011292,138.949753 186.389999,138.959808 
	C173.912292,139.037277 161.433899,139.002426 148.489471,139.005493 
z"/>
<path fill="#8C8D8D" opacity="1.000000" stroke="none" 
	d="
M125.233315,157.197693 
	C126.513069,155.333984 128.463287,156.254410 130.596771,155.994171 
	C132.946655,156.185593 134.997971,155.506058 137.142532,156.976517 
	C137.452209,157.277832 137.358429,157.308578 137.309082,157.308533 
	C136.447952,157.617340 135.663101,158.046127 134.421005,157.814972 
	C132.321701,157.824905 130.544601,157.893845 128.333618,157.856461 
	C127.042725,157.937149 126.207344,157.949249 125.233315,157.197693 
z"/>
<path fill="#8C8D8D" opacity="1.000000" stroke="none" 
	d="
M142.159470,157.430511 
	C144.922211,154.982071 148.308289,155.899902 151.962967,157.009079 
	C149.035889,158.528137 145.801727,158.152115 142.159470,157.430511 
z"/>
<path fill="#969796" opacity="1.000000" stroke="none" 
	d="
M124.699387,156.964188 
	C125.845253,157.069458 126.659538,157.189240 127.686768,157.529572 
	C126.018105,159.422943 123.835533,158.463760 121.403824,158.223083 
	C121.843925,156.643066 123.192230,157.093369 124.699387,156.964188 
z"/>
<path fill="#969796" opacity="1.000000" stroke="none" 
	d="
M134.252319,158.010132 
	C134.766815,156.929947 135.666885,156.979691 136.922333,157.202866 
	C136.705856,158.813675 135.644104,158.802505 134.252319,158.010132 
z"/>
<path fill="#969796" opacity="1.000000" stroke="none" 
	d="
M108.084366,157.185867 
	C108.968727,157.087830 109.980843,156.803650 110.841034,157.898926 
	C110.456779,158.267014 109.946297,158.400269 109.053230,158.372604 
	C108.488876,157.926727 108.307114,157.641769 108.084366,157.185867 
z"/>
<path fill="#95A2A5" opacity="1.000000" stroke="none" 
	d="
M172.333435,111.846405 
	C172.104202,111.134842 172.221146,110.439178 172.975601,110.439751 
	C173.285263,110.439987 173.594528,110.961784 173.946625,111.515121 
	C173.545380,111.837280 173.101486,111.890656 172.333435,111.846405 
z"/>
<path fill="#81B6C3" opacity="1.000000" stroke="none" 
	d="
M2.743297,150.264175 
	C3.725650,150.191345 5.286338,149.968338 3.978141,151.997803 
	C3.377577,151.646515 3.054805,151.116165 2.743297,150.264175 
z"/>
<path fill="#81B6C3" opacity="1.000000" stroke="none" 
	d="
M3.966522,153.239563 
	C4.120214,153.242249 4.275410,153.499359 4.285623,153.864594 
	C4.083102,153.813141 4.025565,153.653564 3.966522,153.239563 
z"/>
<path fill="#73A1AB" opacity="1.000000" stroke="none" 
	d="
M144.621155,136.982391 
	C143.869354,141.924133 139.414536,144.177444 136.106583,147.042999 
	C130.919647,151.536255 125.192581,155.695312 117.375198,155.960541 
	C118.378830,152.227570 121.550354,150.285080 125.015602,149.621170 
	C132.581482,148.171600 137.277161,143.050888 141.972321,137.344177 
	C142.758026,136.992950 143.503220,136.988358 144.621155,136.982391 
z"/>
</svg>